<?xml version="1.0" standalone="no"?>
<!DOCTYPE svg PUBLIC "-//W3C//DTD SVG 20010904//EN"
 "http://www.w3.org/TR/2001/REC-SVG-20010904/DTD/svg10.dtd">
<svg version="1.0" xmlns="http://www.w3.org/2000/svg"
 width="700.000000pt" height="700.000000pt" viewBox="0 0 700.000000 700.000000"
 preserveAspectRatio="xMidYMid meet">
<metadata>
Created by potrace 1.11, written by Peter Selinger 2001-2013
</metadata>
<g transform="translate(0.000000,700.000000) scale(0.100000,-0.100000)"
fill="#000000" stroke="none">
<path d="M0 3500 l0 -3500 3500 0 3500 0 0 3500 0 3500 -3500 0 -3500 0 0
-3500z m6110 225 l0 -2105 -355 0 -355 0 -2 1336 -3 1336 -455 -681 -455 -680
-135 0 -135 -1 -253 345 c-140 190 -257 347 -260 349 -4 2 -154 -214 -334
-480 l-328 -483 0 -520 0 -521 -684 0 -685 0 331 486 c181 268 332 493 335
501 9 22 683 1016 697 1028 11 9 85 119 486 720 95 143 183 271 195 285 13 14
195 279 405 590 211 311 388 571 394 578 9 9 86 12 339 10 l327 -3 -555 -818
-556 -819 18 -27 c38 -60 228 -321 233 -321 3 0 309 450 679 1000 l674 1000
218 0 219 0 0 -2105z m-2270 1873 c-83 -123 -723 -1068 -1423 -2100 l-1272
-1877 -333 0 -333 -1 94 138 c51 75 664 979 1362 2007 697 1029 1297 1912
1332 1963 l64 92 330 0 330 0 -151 -222z"/>
</g>
</svg>
